<?xml version="1.0" standalone="no"?>
<!DOCTYPE svg PUBLIC "-//W3C//DTD SVG 20010904//EN"
 "http://www.w3.org/TR/2001/REC-SVG-20010904/DTD/svg10.dtd">
<svg version="1.0" xmlns="http://www.w3.org/2000/svg"
 width="700.000000pt" height="700.000000pt" viewBox="0 0 700.000000 700.000000"
 preserveAspectRatio="xMidYMid meet">
<metadata>
Created by potrace 1.11, written by Peter Selinger 2001-2013
</metadata>
<g transform="translate(0.000000,700.000000) scale(0.100000,-0.100000)"
fill="#000000" stroke="none">
<path d="M2180 6984 c-172 -31 -329 -97 -459 -194 -62 -46 -905 -881 -1060
-1050 -58 -63 -146 -195 -181 -273 -38 -84 -75 -213 -86 -297 -5 -36 -9 -992
-9 -2125 0 -2244 -3 -2106 57 -2290 113 -339 404 -614 748 -706 135 -36 175
-37 910 -36 l725 2 46 23 c179 88 212 320 64 450 -77 68 -55 66 -825 68 -382
1 -707 4 -722 8 -16 3 -40 9 -55 12 -16 3 -61 21 -102 41 -94 45 -192 141
-238 233 -67 135 -63 8 -61 2021 l3 1822 455 2 c250 2 466 5 480 7 282 53 480
174 644 398 72 97 146 273 161 380 18 137 17 204 -4 261 -41 108 -129 171
-244 175 -156 7 -266 -97 -282 -266 -4 -36 -11 -83 -17 -105 -38 -150 -167
-268 -329 -300 -18 -4 -620 -8 -792 -5 l-27 0 20 41 c12 22 33 55 48 72 22 25
875 889 947 959 64 61 179 118 272 135 50 8 2539 10 2623 1 191 -19 359 -141
437 -316 27 -61 29 -70 42 -145 5 -26 8 -533 8 -1126 0 -593 4 -1100 8 -1127
13 -88 67 -160 149 -200 140 -68 315 3 372 151 17 47 18 98 18 1150 0 605 -3
1136 -7 1180 -41 477 -419 883 -902 969 -116 20 -2722 21 -2835 0z"/>
<path d="M5224 2942 c-81 -28 -128 -73 -164 -155 -26 -58 -22 -165 7 -222 13
-24 214 -233 506 -524 513 -511 508 -505 499 -586 -3 -25 -92 -118 -489 -515
-266 -267 -496 -504 -510 -528 -39 -66 -43 -163 -11 -233 76 -166 276 -220
413 -111 17 13 245 238 509 500 520 518 555 559 602 706 22 66 27 101 28 191
1 124 -4 166 -33 245 -25 71 -49 116 -94 176 -34 47 -956 973 -1007 1012 -75
57 -172 74 -256 44z"/>
<path d="M4143 2936 c-47 -15 -100 -46 -124 -73 -9 -10 -227 -227 -483 -483
-508 -505 -545 -549 -592 -693 -22 -66 -28 -105 -30 -197 -4 -157 28 -268 113
-396 18 -29 254 -272 523 -540 553 -552 554 -553 676 -550 147 5 251 105 260
251 9 131 22 114 -532 668 -399 400 -493 498 -495 522 -10 80 -25 63 493 580
303 302 498 505 510 530 12 23 23 68 26 106 4 56 1 75 -20 120 -60 130 -198
195 -325 155z"/>
</g>
</svg>
